<?xml version="1.0" standalone="no"?><!DOCTYPE svg PUBLIC "-//W3C//DTD SVG 1.1//EN" "http://www.w3.org/Graphics/SVG/1.1/DTD/svg11.dtd"><svg t="1602999602858" class="icon" viewBox="0 0 1024 1024" version="1.1" xmlns="http://www.w3.org/2000/svg" p-id="2769" xmlns:xlink="http://www.w3.org/1999/xlink" width="200" height="200"><defs><style type="text/css"></style></defs><path d="M512 149.333333a170.666667 170.666667 0 1 1-170.666667 170.666667 170.666667 170.666667 0 0 1 170.666667-170.666667m0-64a234.666667 234.666667 0 1 0 234.666667 234.666667A234.666667 234.666667 0 0 0 512 85.333333zM512 682.666667a448 448 0 0 1 341.333333 157.013333 19.84 19.84 0 0 1 2.986667 21.333333 21.333333 21.333333 0 0 1-19.626667 12.586667H188.16a21.333333 21.333333 0 0 1-19.626667-12.586667 19.84 19.84 0 0 1 2.986667-21.333333A448 448 0 0 1 512 682.666667m0-64a510.506667 510.506667 0 0 0-389.12 179.413333A85.333333 85.333333 0 0 0 188.16 938.666667h647.68a85.333333 85.333333 0 0 0 65.28-140.586667A510.506667 510.506667 0 0 0 512 618.666667z" p-id="2770" fill="#d4237a"></path></svg>